# Blender v2.62 (sub 0) OBJ File: 'hex-tile.blend'
# www.blender.org
mtllib hex-tile.mtl
o Cylinder_Cylinder.001
v -0.570919 0.000000 -0.077121
v -0.285459 0.494430 -0.077121
v 0.285460 0.494430 -0.077121
v 0.570919 -0.000000 -0.077121
v 0.285459 -0.494430 -0.077121
v -0.285459 -0.494430 -0.077121
v -0.570919 -0.000000 -0.020029
v -0.285460 0.494430 -0.020029
v 0.285459 0.494431 -0.020029
v 0.570919 0.000000 -0.020029
v 0.285460 -0.494430 -0.020029
v -0.285459 -0.494431 -0.020029
v 0.000000 0.000000 -0.077121
v -0.547842 -0.000000 -0.000029
v -0.273920 -0.474445 -0.000029
v 0.273921 -0.474445 -0.000029
v 0.547842 0.000000 -0.000029
v 0.273921 0.474445 -0.000029
v -0.273921 0.474445 -0.000029
v 0.000000 0.000000 -0.000029
vn 0.000000 -0.000000 -1.000000
vn -0.866026 0.500000 -0.000001
vn -0.000000 1.000000 -0.000001
vn 0.866025 0.500000 -0.000001
vn 0.866026 -0.500000 -0.000001
vn 0.000000 -1.000000 -0.000000
vn -0.866025 -0.500000 0.000002
vn -0.612595 -0.353682 0.706850
vn 0.000001 -0.707364 0.706850
vn 0.612595 -0.353681 0.706850
vn 0.612595 0.353682 0.706850
vn -0.000000 0.707364 0.706850
vn -0.612595 0.353682 0.706850
vn 0.000000 -0.000000 1.000000
usemtl Material.001
s off
f 13//1 1//1 2//1
f 13//1 2//1 3//1
f 13//1 3//1 4//1
f 13//1 4//1 5//1
f 13//1 5//1 6//1
f 6//1 1//1 13//1
f 1//2 7//2 8//2
f 1//2 8//2 2//2
f 2//3 8//3 9//3
f 2//3 9//3 3//3
f 3//4 9//4 10//4
f 3//4 10//4 4//4
f 4//5 10//5 11//5
f 4//5 11//5 5//5
f 5//6 11//6 12//6
f 5//6 12//6 6//6
f 7//7 1//7 6//7
f 7//7 6//7 12//7
usemtl Material.002
f 7//8 12//8 15//8
f 7//8 15//8 14//8
f 12//9 11//9 16//9
f 12//9 16//9 15//9
f 11//10 10//10 17//10
f 11//10 17//10 16//10
f 10//11 9//11 18//11
f 10//11 18//11 17//11
f 9//12 8//12 19//12
f 9//12 19//12 18//12
f 8//13 7//13 14//13
f 8//13 14//13 19//13
usemtl Material.003
f 20//14 14//14 15//14
f 20//14 15//14 16//14
f 20//14 16//14 17//14
f 20//14 17//14 18//14
f 20//14 18//14 19//14
f 20//14 19//14 14//14
